<?xml version="1.0" encoding="UTF-8"?>
<svg version="1.1" xmlns="http://www.w3.org/2000/svg" width="201" height="201">
<path d="M0 0 C2.90420532 -0.38768005 2.90420532 -0.38768005 6.67431641 -0.40405273 C7.36091843 -0.41091599 8.04752045 -0.41777924 8.75492859 -0.42485046 C11.03734779 -0.44322336 13.31908474 -0.43925918 15.6015625 -0.43359375 C17.19705426 -0.4381576 18.79254405 -0.44346378 20.38803101 -0.44947815 C23.74574716 -0.45843493 27.10322598 -0.45596539 30.4609375 -0.44604492 C34.71943277 -0.43467767 38.97708361 -0.45456185 43.23546791 -0.48396206 C46.54054821 -0.50253272 49.84543513 -0.5019886 53.15055466 -0.49632454 C54.71709738 -0.49617317 56.28365483 -0.50206131 57.85014725 -0.51461601 C76.09916178 -0.64002603 94.30916597 2.77083871 108.03125 15.796875 C120.44867624 29.69256626 121.92533454 47.4816316 121.1953125 65.28808594 C120.43443538 75.85286474 117.2688915 85.40501981 111 94 C110.278125 95.051875 109.55625 96.10375 108.8125 97.1875 C94.32086129 111.67913871 73.81575458 114.04413663 54.32128906 114.12963867 C48.8803127 114.12292403 43.44041535 114.0770681 38 114 C38.0314209 114.96486328 38.0314209 114.96486328 38.06347656 115.94921875 C38.64628357 136.63517874 37.51258318 155.0035126 23 171 C15.75033925 177.79749896 7.72236288 180.61109102 -2 182 C-2.33 162.53 -2.66 143.06 -3 123 C-7.95492486 132.90984973 -10.19870628 141.61313249 -11.26611328 152.51757812 C-11.63745996 156.07478086 -12.10816782 158.9306789 -14 162 C-19.2371235 161.33606049 -20.97915052 159.39672738 -24.22900391 155.44287109 C-27.34807708 151.14049362 -29.78319748 146.5420392 -32.1875 141.8125 C-32.70997314 140.79744385 -33.23244629 139.7823877 -33.77075195 138.73657227 C-42.54580761 121.33792271 -46.02686594 103.65695118 -40.3125 84.62890625 C-34.46905326 68.47247168 -24.14192045 57.30029585 -10 48 C-27.53340588 51.31713084 -41.08236365 60.39375368 -51.1875 75.0625 C-58.96437237 87.6663966 -62.41652067 101.55291162 -65 116 C-73.15242272 103.77136592 -71.62222918 81.91193566 -68.91918945 68.14648438 C-65.72788316 54.33959611 -59.94230703 42.00733463 -51 31 C-50.36191406 30.1646875 -49.72382812 29.329375 -49.06640625 28.46875 C-38.39874579 15.72402144 -20.6362615 6.14311203 -4.19140625 3.55859375 C-1.62676856 3.16517999 -1.62676856 3.16517999 0 0 Z M38 34 C38 49.18 38 64.36 38 80 C58.33353084 81.11272827 58.33353084 81.11272827 76 73 C81.82660125 65.5299984 81.66304497 58.08371609 81 49 C79.62879575 43.52344325 76.71383267 40.22315877 72.171875 37.0078125 C64.79046887 33.58262764 57.47491984 33.75195714 49.5 33.875 C43.8075 33.936875 43.8075 33.936875 38 34 Z " fill="#0057CD" transform="translate(75,16)"/>
</svg>
